%
M48
M72
T01C0.0236
T02C0.0320
T03C0.0360
T04C0.0394
T05C0.0400
T06C0.0512
T07C0.0520
T08C0.0787
T09C0.1102
T10C0.1260
%
T01
X24060Y26893
X27160Y26893
X27760Y24893
X31060Y23393
X34360Y18293
X35960Y23293
X39560Y29693
X37760Y31093
X36560Y32393
X34560Y30493
X33560Y32893
X34060Y33893
X34560Y34393
X34060Y35393
X33560Y35893
X33060Y37393
X32060Y37393
X32060Y36393
X30060Y37393
X29119Y36393
X28060Y37893
X27360Y38993
X27060Y40893
X24060Y41193
X25060Y44793
X27160Y44793
X26160Y48193
X24560Y48893
X25060Y50393
X25060Y51393
X26060Y51893
X27060Y52393
X25560Y53793
X25560Y54393
X25560Y55393
X27060Y58393
X26960Y60393
X26960Y62393
X29360Y62793
X30060Y60393
X29360Y59293
X29060Y56393
X30560Y54893
X29060Y53393
X29060Y50393
X30560Y49393
X30060Y46393
X31760Y46293
X31560Y44393
X32060Y43393
X32060Y42393
X31060Y43393
X30036Y43893
X33560Y43393
X33460Y41393
X34560Y40893
X35260Y37293
X37560Y38393
X38560Y37393
X38960Y35793
X38860Y33793
X39560Y32893
X39560Y32193
X41060Y32393
X42260Y30193
X44160Y34793
X46060Y34893
X46560Y33893
X47560Y34393
X47560Y35393
X48560Y35393
X47560Y36393
X49060Y38893
X51060Y37893
X52060Y35393
X50060Y33893
X47560Y33193
X52560Y31893
X52660Y27493
X51560Y25893
X50560Y24393
X48560Y24393
X48060Y23393
X50060Y21893
X52060Y21893
X52560Y19893
X53560Y19893
X53560Y23893
X54660Y27093
X55060Y37693
X54460Y40493
X52760Y42393
X53060Y42893
X52560Y43393
X52060Y44393
X51060Y45393
X50160Y46593
X49060Y46393
X49560Y45393
X49560Y44493
X47560Y44893
X47560Y43393
X46060Y42893
X46060Y44893
X46060Y45893
X44060Y45393
X43060Y43893
X40560Y43893
X39560Y43893
X38560Y43893
X36060Y45393
X36060Y47393
X36060Y48393
X36060Y49393
X36060Y50393
X37060Y50893
X36560Y51393
X36550Y52813
X36160Y54993
X35560Y54893
X35560Y55493
X35560Y56393
X35060Y57293
X34560Y56893
X33560Y57293
X32560Y56393
X33560Y54893
X36660Y56293
X37060Y55893
X38060Y55893
X38660Y56393
X39060Y55393
X39560Y53893
X38560Y51393
X39060Y49893
X37060Y47493
X42060Y47893
X42660Y47893
X42560Y48893
X46060Y49393
X46560Y53393
X45860Y54393
X45560Y53393
X44060Y55993
X44060Y56893
X42960Y56893
X42560Y57293
X42060Y56893
X42060Y58393
X43060Y58393
X42560Y55393
X45860Y56393
X46160Y57793
X48060Y55893
X50060Y55893
X48660Y57893
X51560Y57893
X53560Y57393
X53560Y56093
X54060Y55393
X54060Y53393
X54060Y51393
X52060Y51393
X54060Y48593
X54060Y47893
X54060Y45393
X53360Y44893
X51560Y42393
X42560Y37893
X42560Y37193
X31560Y32893
X31960Y31793
X31560Y29893
X30560Y29393
X30560Y30893
X28060Y29893
X27560Y31893
X27660Y33993
X26560Y21093
X41460Y18093
X45460Y21793
X44260Y23393
X42060Y24493
X47560Y53393
X55060Y58593
X56060Y56393
X56660Y60793
X55160Y66093
X57060Y66893
X50560Y64893
X49660Y64093
X49560Y65993
X46060Y64893
X45760Y65993
X44160Y63893
X41060Y66393
X40260Y67893
X40360Y70193
X37960Y66493
X38560Y64893
X40660Y63893
X39560Y62393
X40060Y61393
X38360Y59693
X38360Y58393
X37660Y56893
X36560Y56893
X32560Y58893
X32060Y59893
X32960Y62793
X32060Y64393
X33060Y64893
X33060Y66393
X33060Y67393
X34760Y67693
X36560Y69693
X35560Y64893
X36560Y64393
X36060Y62393
X29060Y69393
X27060Y66893
X26060Y66393
X26060Y67393
X26560Y68393
X24160Y68693
X27160Y65793
T02
X31060Y63893
X31060Y59893
X36060Y20893
X35310Y20393
X36060Y19893
T03
X40560Y19893
X40560Y20893
X43060Y20893
X43060Y19893
X47060Y21893
X48060Y21893
X42560Y33393
X42560Y34393
T04
X30560Y34643
X30560Y33643
X30560Y32643
X30560Y31643
X29560Y31143
X29560Y32143
X29560Y33143
X29560Y34143
X29560Y38143
X29560Y39143
X29560Y40143
X29560Y41143
X30560Y40643
X30560Y41643
X30560Y39643
X30560Y38643
X30560Y27643
X30560Y26643
X30560Y25643
X30560Y24643
X29560Y24143
X29560Y25143
X29560Y26143
X29560Y27143
T05
X32460Y26693
X33060Y28393
X34060Y28393
X35060Y28393
X36060Y28393
X38460Y26693
X36560Y25393
X35560Y25393
X34560Y25393
X32460Y23093
X32460Y21193
X32460Y17593
X38460Y17593
X38460Y21193
X38460Y23093
X36060Y31393
X35060Y31393
X34060Y31393
X33060Y31393
X32560Y32893
X32560Y33893
X32560Y34893
X32560Y35893
X32560Y38893
X32560Y39893
X32560Y40893
X32560Y41893
X35560Y41893
X35560Y40893
X35560Y39893
X35560Y38893
X35560Y35893
X35560Y34893
X35560Y33893
X35560Y32893
X38060Y33393
X38060Y34393
X38060Y35393
X38060Y36393
X39560Y39393
X39560Y40393
X40560Y40393
X40560Y39393
X40560Y41393
X40560Y42393
X39560Y42393
X39560Y41393
X39560Y44893
X39560Y45893
X40560Y45893
X40560Y44893
X40560Y46893
X40560Y47893
X40560Y48893
X40560Y49893
X40560Y50893
X40560Y51893
X40560Y52893
X40560Y53893
X38060Y54319
X38060Y53319
X37060Y53319
X37060Y54319
X37060Y52319
X38060Y52319
X34560Y52393
X34560Y51393
X34560Y50393
X34560Y49393
X34560Y48393
X34560Y47393
X31560Y47393
X31560Y48393
X31560Y49393
X31560Y50393
X31560Y51393
X31560Y52393
X31560Y53393
X31560Y54393
X31560Y55393
X34560Y55393
X34560Y54393
X34560Y53393
X34060Y58893
X34060Y59893
X34060Y60893
X34060Y61893
X34060Y62893
X34060Y63893
X34060Y64893
X34060Y65893
X33560Y67893
X33560Y68893
X32560Y68893
X32560Y67893
X31560Y67893
X31560Y68893
X30560Y68893
X30560Y67893
X28560Y64893
X28560Y63893
X28560Y62893
X28560Y61893
X28560Y60893
X28560Y59893
X28560Y58893
X28560Y57893
X28560Y56893
X28560Y55893
X28560Y54893
X28560Y53893
X28560Y52893
X28560Y51893
X28560Y50893
X28560Y49893
X28560Y48893
X28560Y47893
X28560Y46893
X28560Y45893
X27560Y45893
X27560Y46893
X27560Y47893
X27560Y48893
X27560Y49893
X27560Y50893
X27560Y51893
X27560Y52893
X27560Y53893
X27560Y54893
X27560Y55893
X27560Y56893
X27560Y57893
X27560Y58893
X27560Y59893
X27560Y60893
X27560Y61893
X27560Y62893
X27560Y63893
X27560Y64893
X36060Y67893
X36060Y68893
X37060Y68893
X37060Y67893
X38060Y67893
X39060Y67893
X39060Y68893
X38060Y68893
X37060Y65893
X37060Y64893
X37060Y63893
X37060Y62893
X37060Y61893
X37060Y60893
X37060Y59893
X37060Y58893
X42560Y65893
X43560Y65893
X44560Y65893
X47060Y62393
X47060Y61393
X47060Y60393
X48060Y60393
X48060Y61393
X48060Y62393
X48060Y59393
X47060Y59393
X52060Y59393
X52060Y60393
X52060Y61393
X52060Y62393
X55560Y61893
X55560Y62893
X55560Y63893
X56560Y63893
X56560Y62893
X56560Y61893
X56560Y64893
X55560Y64893
X55560Y57893
X55560Y56893
X56560Y56893
X56560Y57893
X56560Y55893
X56560Y54893
X55560Y54893
X55560Y55893
X55560Y50893
X55560Y49893
X56560Y49893
X56560Y50893
X56560Y48893
X56560Y47893
X55560Y47893
X55560Y48893
X55560Y44393
X55560Y43393
X56560Y43393
X56560Y44393
X56560Y42393
X56560Y41393
X55560Y41393
X55560Y42393
X52560Y41000
X52560Y40000
X52560Y39000
X52560Y38000
X52560Y37000
X48060Y37393
X48060Y38393
X48060Y39393
X48060Y40393
X47060Y40393
X47060Y39393
X47060Y38393
X47060Y37393
X41060Y36393
X41060Y35393
X41060Y34393
X41060Y33393
X47060Y29393
X48060Y29393
X48060Y28393
X48060Y27393
X48060Y26393
X47060Y26393
X47060Y27393
X47060Y28393
X39560Y46893
X39560Y47893
X47060Y47893
X47060Y48893
X48060Y48893
X48060Y47893
X48060Y49893
X48060Y50893
X48060Y51893
X47060Y51893
X47060Y50893
X47060Y49893
T06
X29953Y20393
X28772Y18504
X27670Y20393
T07
X30560Y65893
X32060Y65893
T08
X44560Y60893
X45347Y58925
X45347Y62862
X49678Y62862
X50465Y60893
X49678Y58925
X49678Y51862
X50465Y49893
X49678Y47925
X45347Y47925
X44560Y49893
X45347Y51862
X45347Y40862
X44560Y38893
X45347Y36925
X49678Y36925
X50465Y38893
X49678Y40862
X49678Y29862
X50465Y27893
X49678Y25925
X45347Y25925
X44560Y27893
X45347Y29862
T09
X57060Y17393
X24560Y17393
X24560Y69893
X57060Y69893
T10
X27060Y42143
X27060Y37643
X27060Y35143
X27060Y30643
X27060Y28143
X27060Y23643
M30
