%
M48
M72
T01C0.0236
T02C0.0320
T03C0.0394
T04C0.0400
T05C0.0512
T06C0.0520
T07C0.0787
T08C0.1102
T09C0.1260
%
T01
X3892Y4850
X6192Y5550
X5092Y8650
X4492Y10650
X5392Y13650
X4892Y15650
X4992Y17750
X6452Y20150
X7392Y21150
X5392Y21650
X4692Y22750
X4392Y24650
X4492Y28550
X2392Y28550
X3492Y31950
X1892Y32650
X2392Y34150
X2392Y35150
X3392Y35550
X4392Y36150
X2892Y37550
X2892Y38150
X2892Y39150
X4392Y42150
X4292Y44150
X4292Y46150
X4492Y49550
X4392Y50650
X3392Y50150
X3392Y51150
X3892Y52150
X1492Y52450
X6392Y53150
X9292Y48150
X8992Y47150
X10292Y46550
X10392Y45650
X11992Y45150
X11992Y44150
X13392Y46150
X13892Y48150
X12892Y48650
X12092Y51450
X10392Y51150
X10392Y50150
X10392Y48650
X7492Y47150
X7592Y46250
X7592Y45150
X7592Y44150
X7392Y42950
X6692Y43050
X6392Y40150
X7892Y38650
X6392Y37150
X6392Y34150
X7892Y33150
X7392Y30150
X9092Y30050
X8892Y28150
X9392Y27150
X9392Y26150
X8392Y27150
X7368Y27650
X10892Y27150
X10792Y25150
X11492Y24550
X12892Y21550
X14292Y20750
X14892Y22150
X15892Y21150
X16292Y19550
X16192Y17550
X16892Y16650
X16892Y15950
X18392Y16150
X19592Y13950
X16892Y13450
X15992Y13350
X15092Y14550
X15292Y15650
X11892Y14250
X10892Y16650
X11392Y17650
X11892Y18150
X11392Y19150
X10892Y19650
X10392Y21150
X11192Y21350
X9392Y21150
X9392Y20150
X8892Y16650
X9292Y15550
X7892Y14650
X8892Y13650
X7892Y13150
X8392Y7150
X11692Y2050
X13392Y9450
X18792Y1850
X21592Y7150
X22792Y5550
X25392Y7150
X25892Y8150
X27392Y5650
X27892Y8150
X28892Y9650
X29992Y11250
X31992Y10850
X30892Y7650
X29392Y5650
X29892Y3650
X30892Y3650
X29892Y15650
X28292Y18650
X26692Y18350
X25892Y19150
X24892Y19150
X24892Y20150
X24892Y17650
X24892Y16950
X23892Y17650
X23392Y18650
X21492Y18550
X19892Y20950
X19892Y21650
X23392Y26650
X23392Y28650
X23392Y29650
X24892Y28650
X24892Y27150
X26892Y28250
X26892Y29150
X26392Y30150
X27492Y30350
X28392Y29150
X29392Y28150
X29892Y27150
X30392Y26650
X30092Y26150
X29092Y26450
X30692Y28650
X31392Y29150
X31392Y31650
X31392Y32350
X30892Y33650
X31392Y35150
X30892Y35650
X31392Y37650
X31392Y39150
X30892Y39850
X30792Y41150
X28892Y41650
X27392Y39650
X25992Y41650
X25392Y39650
X24892Y37150
X25392Y36650
X23892Y37150
X23192Y38150
X22892Y37150
X21392Y39750
X21392Y40650
X20292Y40550
X19892Y41050
X19392Y40150
X19892Y39150
X20392Y42650
X19392Y42650
X17392Y45150
X16892Y46150
X17992Y47650
X18392Y50150
X17592Y51650
X17692Y53950
X15292Y50250
X15892Y48650
X13892Y53450
X15692Y43450
X15692Y42150
X14992Y40650
X15392Y39650
X15992Y40150
X16392Y39150
X16892Y37650
X15892Y35150
X16392Y33650
X14392Y34650
X13892Y35150
X13392Y34150
X13392Y33150
X13392Y32150
X13392Y31150
X14392Y31250
X13392Y29150
X15892Y27650
X16892Y27650
X17892Y27650
X20392Y27650
X21392Y29150
X19992Y31650
X19392Y31650
X19892Y32650
X23392Y33150
X23192Y40150
X23492Y41550
X21492Y47650
X23092Y49750
X23392Y48650
X25392Y49750
X26892Y48650
X26992Y47850
X32492Y49850
X34392Y50650
X33992Y44550
X32392Y42350
X33392Y40150
X32392Y35650
X29392Y35150
X29392Y34150
X29392Y30650
X33392Y28650
X31792Y24250
X32392Y21450
X32492Y19750
X26392Y22650
X19392Y8250
X1392Y10650
X1392Y24950
X10892Y38650
X9892Y40150
X10892Y41050
X10392Y42150
X9892Y42650
X9392Y43650
X11892Y40650
X12392Y41050
X12892Y40150
X12892Y39250
X12892Y38650
X13492Y38750
X14392Y39650
X13992Y40050
X13892Y40650
X13882Y36570
T02
X13392Y4650
X12642Y4150
X13392Y3650
T03
X7892Y8400
X7892Y9400
X7892Y10400
X7892Y11400
X6892Y10900
X6892Y9900
X6892Y8900
X6892Y7900
X6892Y14900
X6892Y15900
X6892Y16900
X6892Y17900
X7892Y17400
X7892Y16400
X7892Y15400
X7892Y18400
X6892Y21900
X6892Y22900
X6892Y23900
X6892Y24900
X7892Y24400
X7892Y23400
X7892Y22400
X7892Y25400
T04
X9892Y25650
X9892Y24650
X9892Y23650
X9892Y22650
X9892Y19650
X9892Y18650
X9892Y17650
X9892Y16650
X10392Y15150
X11392Y15150
X12392Y15150
X13392Y15150
X12892Y16650
X12892Y17650
X12892Y18650
X12892Y19650
X12892Y22650
X12892Y23650
X12892Y24650
X12892Y25650
X11892Y31150
X11892Y32150
X11892Y33150
X11892Y34150
X11892Y35150
X11892Y36150
X11892Y37150
X11892Y38150
X11892Y39150
X11392Y42650
X11392Y43650
X11392Y44650
X11392Y45650
X11392Y46650
X11392Y47650
X11392Y48650
X11392Y49650
X10892Y51650
X10892Y52650
X9892Y52650
X9892Y51650
X8892Y51650
X8892Y52650
X7892Y52650
X7892Y51650
X5892Y48650
X5892Y47650
X5892Y46650
X5892Y45650
X5892Y44650
X5892Y43650
X5892Y42650
X5892Y41650
X5892Y40650
X5892Y39650
X5892Y38650
X5892Y37650
X5892Y36650
X5892Y35650
X5892Y34650
X5892Y33650
X5892Y32650
X5892Y31650
X5892Y30650
X5892Y29650
X4892Y29650
X4892Y30650
X4892Y31650
X4892Y32650
X4892Y33650
X4892Y34650
X4892Y35650
X4892Y36650
X4892Y37650
X4892Y38650
X4892Y39650
X4892Y40650
X4892Y41650
X4892Y42650
X4892Y43650
X4892Y44650
X4892Y45650
X4892Y46650
X4892Y47650
X4892Y48650
X8892Y39150
X8892Y38150
X8892Y37150
X8892Y36150
X8892Y35150
X8892Y34150
X8892Y33150
X8892Y32150
X8892Y31150
X14392Y36075
X14392Y37075
X14392Y38075
X15392Y38075
X15392Y37075
X15392Y36075
X17892Y35650
X17892Y36650
X17892Y37650
X17892Y34650
X17892Y33650
X17892Y32650
X17892Y31650
X17892Y30650
X17892Y29650
X17892Y28650
X16892Y28650
X16892Y29650
X16892Y30650
X16892Y31650
X16892Y26150
X16892Y25150
X16892Y24150
X17892Y24150
X17892Y25150
X17892Y26150
X18392Y20150
X18392Y19150
X18392Y18150
X18392Y17150
X19892Y17100
X19892Y18200
X15392Y18150
X15392Y19150
X15392Y20150
X15392Y17150
X13392Y12150
X12392Y12150
X11392Y12150
X10392Y12150
X9792Y10450
X11892Y7650
X12892Y7650
X13892Y7650
X15792Y6850
X15792Y4950
X17892Y4700
X17892Y3600
X15792Y1350
X20392Y3600
X20392Y4700
X24342Y5650
X25442Y5650
X25392Y10150
X25392Y11150
X25392Y12150
X25392Y13150
X24392Y13150
X24392Y12150
X24392Y11150
X24392Y10150
X29942Y19150
X29842Y20150
X29942Y21150
X29842Y22150
X29942Y23150
X32892Y25150
X32892Y26150
X32892Y27150
X32892Y28150
X33892Y28150
X33892Y27150
X33892Y26150
X33892Y25150
X33892Y31650
X33892Y32650
X33892Y33650
X33892Y34650
X32892Y34650
X32892Y33650
X32892Y32650
X32892Y31650
X32892Y38650
X32892Y39650
X32892Y40650
X32892Y41650
X33892Y41650
X33892Y40650
X33892Y39650
X33892Y38650
X33892Y45650
X33892Y46650
X33892Y47650
X33892Y48650
X32892Y48650
X32892Y47650
X32892Y46650
X32892Y45650
X29942Y46650
X29842Y47650
X29942Y48650
X29842Y45650
X25392Y45150
X25392Y44150
X25392Y43150
X24392Y43150
X24392Y44150
X24392Y45150
X24392Y46150
X25392Y46150
X21892Y49650
X20892Y49650
X19892Y49650
X16392Y51650
X16392Y52650
X15392Y52650
X15392Y51650
X14392Y51650
X14392Y52650
X13392Y52650
X13392Y51650
X14392Y49650
X14392Y48650
X14392Y47650
X14392Y46650
X14392Y45650
X14392Y44650
X14392Y43650
X14392Y42650
X24392Y35650
X24392Y34650
X24392Y33650
X24392Y32650
X24392Y31650
X25392Y31650
X25392Y32650
X25392Y33650
X25392Y34650
X25392Y35650
X25392Y24150
X25392Y23150
X25392Y22150
X25392Y21150
X24392Y21150
X24392Y22150
X24392Y23150
X24392Y24150
X15792Y10450
X9792Y6850
X9792Y4950
X9792Y1350
T05
X7286Y4150
X6105Y2260
X5002Y4150
T06
X7892Y49650
X9392Y49650
T07
X21892Y44650
X22679Y42681
X22679Y46619
X27010Y46619
X27797Y44650
X27010Y42681
X27010Y35619
X27797Y33650
X27010Y31681
X22679Y31681
X21892Y33650
X22679Y35619
X22679Y24619
X21892Y22650
X22679Y20681
X27010Y20681
X27797Y22650
X27010Y24619
X27010Y13619
X27797Y11650
X27010Y9681
X22679Y9681
X21892Y11650
X22679Y13619
T08
X1892Y1150
X34392Y1150
X34392Y53650
X1892Y53650
T09
X4392Y25900
X4392Y21400
X4392Y18900
X4392Y14400
X4392Y11900
X4392Y7400
M30
