G75*
%MOIN*%
%OFA0B0*%
%FSLAX24Y24*%
%IPPOS*%
%LPD*%
%AMOC8*
5,1,8,0,0,1.08239X$1,22.5*
%
%ADD10R,0.0630X0.0709*%
%ADD11R,0.0709X0.0630*%
%ADD12R,0.0630X0.0710*%
%ADD13R,0.0710X0.0630*%
%ADD14R,0.0630X0.0787*%
%ADD15R,0.0217X0.0472*%
D10*
X014741Y012050D03*
X015843Y012050D03*
X024341Y026150D03*
X025443Y026150D03*
X025443Y029650D03*
X024341Y029650D03*
X020443Y029650D03*
X019341Y029650D03*
X026341Y016650D03*
X027443Y016650D03*
X032841Y023119D03*
X033943Y023119D03*
X033943Y030181D03*
X032841Y030181D03*
X032841Y036619D03*
X033943Y036619D03*
X033868Y043681D03*
X032766Y043681D03*
X025443Y048650D03*
X024341Y048650D03*
X017443Y049650D03*
X016341Y049650D03*
D11*
X008392Y042701D03*
X008392Y041599D03*
X009892Y009201D03*
X009892Y008099D03*
X011392Y004201D03*
X011392Y003099D03*
X015892Y002599D03*
X015892Y003701D03*
X015892Y008099D03*
X015892Y009201D03*
D12*
X002332Y008650D03*
X003452Y008650D03*
X003452Y010650D03*
X002332Y010650D03*
X002332Y015650D03*
X003452Y015650D03*
X003452Y017650D03*
X002332Y017650D03*
X002332Y022650D03*
X003452Y022650D03*
X003452Y024650D03*
X002332Y024650D03*
X016832Y042650D03*
X017952Y042650D03*
X017952Y044150D03*
X016832Y044150D03*
X026932Y049650D03*
X028052Y049650D03*
X027452Y027650D03*
X026332Y027650D03*
X019152Y015150D03*
X018032Y015150D03*
X021832Y003650D03*
X022952Y003650D03*
X022952Y002150D03*
X021832Y002150D03*
X025332Y002150D03*
X026452Y002150D03*
X026452Y003650D03*
X025332Y003650D03*
D13*
X029892Y012590D03*
X029892Y013710D03*
X028892Y036590D03*
X028892Y037710D03*
D14*
X028892Y006650D03*
X029892Y006650D03*
X030892Y006650D03*
X030892Y002650D03*
X029892Y002650D03*
X028892Y002650D03*
D15*
X019266Y047138D03*
X019266Y048162D03*
X018892Y048162D03*
X018518Y048162D03*
X018518Y047138D03*
M02*
