G75*
%MOIN*%
%OFA0B0*%
%FSLAX24Y24*%
%IPPOS*%
%LPD*%
%AMOC8*
5,1,8,0,0,1.08239X$1,22.5*
%
%ADD10C,0.1182*%
%ADD11R,0.0710X0.0789*%
%ADD12R,0.0789X0.0710*%
%ADD13OC8,0.0640*%
%ADD14OC8,0.0820*%
%ADD15C,0.0820*%
%ADD16R,0.0820X0.0820*%
%ADD17C,0.1340*%
%ADD18R,0.0790X0.0710*%
%ADD19R,0.0710X0.0790*%
%ADD20C,0.1580*%
%ADD21OC8,0.0930*%
%ADD22C,0.0720*%
%ADD23C,0.0680*%
%ADD24C,0.0848*%
%ADD25OC8,0.0720*%
%ADD26R,0.0789X0.0474*%
%ADD27C,0.0640*%
%ADD28R,0.0710X0.0867*%
%ADD29R,0.0297X0.0552*%
%ADD30R,0.0720X0.0720*%
D10*
X024560Y017393D03*
X057060Y017393D03*
X057060Y069893D03*
X024560Y069893D03*
D11*
X039008Y065893D03*
X040111Y065893D03*
X047008Y064893D03*
X048111Y064893D03*
X055434Y059925D03*
X056536Y059925D03*
X056611Y052862D03*
X055508Y052862D03*
X055508Y046425D03*
X056611Y046425D03*
X056611Y039362D03*
X055508Y039362D03*
X050111Y032893D03*
X049008Y032893D03*
X048111Y042393D03*
X047008Y042393D03*
X047008Y045893D03*
X048111Y045893D03*
X043111Y045893D03*
X042008Y045893D03*
X038511Y028293D03*
X037408Y028293D03*
D12*
X038560Y025444D03*
X038560Y024342D03*
X038560Y019944D03*
X038560Y018842D03*
X034060Y019342D03*
X034060Y020444D03*
X032560Y024342D03*
X032560Y025444D03*
D13*
X036060Y020893D03*
X035310Y020393D03*
X036060Y019893D03*
D14*
X028560Y045893D03*
X028560Y046893D03*
X028560Y047893D03*
X028560Y048893D03*
X028560Y049893D03*
X028560Y050893D03*
X028560Y051893D03*
X028560Y052893D03*
X028560Y053893D03*
X028560Y054893D03*
X028560Y055893D03*
X028560Y056893D03*
X028560Y057893D03*
X028560Y058893D03*
X028560Y059893D03*
X028560Y060893D03*
X028560Y061893D03*
X028560Y062893D03*
X028560Y063893D03*
X028560Y064893D03*
X027560Y064893D03*
X027560Y063893D03*
X027560Y062893D03*
X027560Y061893D03*
X027560Y060893D03*
X027560Y059893D03*
X027560Y058893D03*
X027560Y057893D03*
X027560Y056893D03*
X027560Y055893D03*
X027560Y054893D03*
X027560Y053893D03*
X027560Y052893D03*
X027560Y051893D03*
X027560Y050893D03*
X027560Y049893D03*
X027560Y048893D03*
X027560Y047893D03*
X027560Y046893D03*
X027560Y045893D03*
D15*
X030560Y041643D03*
X030560Y040643D03*
X030560Y039643D03*
X030560Y038643D03*
X029560Y039143D03*
X029560Y040143D03*
X029560Y041143D03*
X032560Y040893D03*
X032560Y039893D03*
X032560Y038893D03*
X032560Y035893D03*
X032560Y034893D03*
X032560Y033893D03*
X032560Y032893D03*
X033060Y031393D03*
X034060Y031393D03*
X035060Y031393D03*
X036060Y031393D03*
X035560Y032893D03*
X035560Y033893D03*
X035560Y034893D03*
X035560Y035893D03*
X038060Y035393D03*
X038060Y034393D03*
X038060Y033393D03*
X038060Y036393D03*
X035560Y038893D03*
X035560Y039893D03*
X035560Y040893D03*
X035560Y041893D03*
X032560Y041893D03*
X031560Y047393D03*
X031560Y048393D03*
X031560Y049393D03*
X031560Y050393D03*
X031560Y051393D03*
X031560Y052393D03*
X031560Y053393D03*
X031560Y054393D03*
X031560Y055393D03*
X034560Y055393D03*
X034560Y054393D03*
X034560Y053393D03*
X034560Y052393D03*
X034560Y051393D03*
X034560Y050393D03*
X034560Y049393D03*
X034560Y048393D03*
X034560Y047393D03*
X039560Y046893D03*
X039560Y047893D03*
X040560Y047893D03*
X040560Y046893D03*
X040560Y045893D03*
X040560Y044893D03*
X039560Y045893D03*
X040560Y048893D03*
X040560Y049893D03*
X040560Y050893D03*
X040560Y051893D03*
X040560Y052893D03*
X040560Y053893D03*
X037060Y058893D03*
X037060Y059893D03*
X037060Y060893D03*
X037060Y061893D03*
X037060Y062893D03*
X037060Y063893D03*
X037060Y064893D03*
X037060Y065893D03*
X034060Y065893D03*
X034060Y064893D03*
X034060Y063893D03*
X034060Y062893D03*
X034060Y061893D03*
X034060Y060893D03*
X034060Y059893D03*
X034060Y058893D03*
X042560Y065893D03*
X043560Y065893D03*
X044560Y065893D03*
X052060Y062393D03*
X052060Y061393D03*
X052060Y060393D03*
X052560Y041000D03*
X052560Y040000D03*
X052560Y039000D03*
X052560Y038000D03*
X052560Y037000D03*
X041060Y036393D03*
X041060Y035393D03*
X041060Y034393D03*
X041060Y033393D03*
X036060Y028393D03*
X035060Y028393D03*
X034060Y028393D03*
X033060Y028393D03*
X030560Y027643D03*
X030560Y026643D03*
X030560Y025643D03*
X030560Y024643D03*
X029560Y025143D03*
X029560Y026143D03*
X029560Y027143D03*
X030560Y031643D03*
X030560Y032643D03*
X030560Y033643D03*
X030560Y034643D03*
X029560Y034143D03*
X029560Y033143D03*
X029560Y032143D03*
D16*
X029560Y031143D03*
X029560Y024143D03*
X029560Y038143D03*
X039560Y044893D03*
X052060Y059393D03*
D17*
X027060Y042143D03*
X027060Y037643D03*
X027060Y035143D03*
X027060Y030643D03*
X027060Y028143D03*
X027060Y023643D03*
D18*
X051560Y052833D03*
X051560Y053953D03*
X052060Y064833D03*
X052060Y065953D03*
X052560Y029953D03*
X052560Y028833D03*
D19*
X049119Y019893D03*
X048000Y019893D03*
X048000Y018393D03*
X049119Y018393D03*
X045619Y018393D03*
X044500Y018393D03*
X044500Y019893D03*
X045619Y019893D03*
X041819Y031393D03*
X040700Y031393D03*
X049000Y043893D03*
X050119Y043893D03*
X040619Y058893D03*
X039500Y058893D03*
X039500Y060393D03*
X040619Y060393D03*
X026119Y040893D03*
X025000Y040893D03*
X025000Y038893D03*
X026119Y038893D03*
X026119Y033893D03*
X025000Y033893D03*
X025000Y031893D03*
X026119Y031893D03*
X026119Y026893D03*
X025000Y026893D03*
X025000Y024893D03*
X026119Y024893D03*
D20*
X044560Y027893D03*
X045347Y025925D03*
X045347Y029862D03*
X049678Y029862D03*
X050465Y027893D03*
X049678Y025925D03*
X049678Y036925D03*
X050465Y038893D03*
X049678Y040862D03*
X045347Y040862D03*
X044560Y038893D03*
X045347Y036925D03*
X045347Y047925D03*
X044560Y049893D03*
X045347Y051862D03*
X049678Y051862D03*
X050465Y049893D03*
X049678Y047925D03*
X049678Y058925D03*
X050465Y060893D03*
X049678Y062862D03*
X045347Y062862D03*
X044560Y060893D03*
X045347Y058925D03*
D21*
X032060Y065893D03*
X030560Y065893D03*
D22*
X034560Y024213D02*
X034560Y023573D01*
X035560Y023573D02*
X035560Y024213D01*
X036560Y024213D02*
X036560Y023573D01*
D23*
X040260Y020893D02*
X040860Y020893D01*
X040860Y019893D02*
X040260Y019893D01*
X042760Y019893D02*
X043360Y019893D01*
X043360Y020893D02*
X042760Y020893D01*
X047060Y021593D02*
X047060Y022193D01*
X048060Y022193D02*
X048060Y021593D01*
X042860Y033393D02*
X042260Y033393D01*
X042260Y034393D02*
X042860Y034393D01*
D24*
X029953Y020393D03*
X028772Y018504D03*
X027670Y020393D03*
D25*
X039560Y039393D03*
X039560Y040393D03*
X040560Y040393D03*
X040560Y039393D03*
X040560Y041393D03*
X040560Y042393D03*
X039560Y042393D03*
X039560Y041393D03*
X047060Y040393D03*
X047060Y039393D03*
X047060Y038393D03*
X048060Y038393D03*
X048060Y039393D03*
X048060Y040393D03*
X048060Y037393D03*
X047060Y037393D03*
X047060Y029393D03*
X048060Y029393D03*
X048060Y028393D03*
X048060Y027393D03*
X048060Y026393D03*
X047060Y026393D03*
X047060Y027393D03*
X047060Y028393D03*
X055560Y041393D03*
X055560Y042393D03*
X056560Y042393D03*
X056560Y041393D03*
X056560Y043393D03*
X056560Y044393D03*
X055560Y044393D03*
X055560Y043393D03*
X055560Y047893D03*
X055560Y048893D03*
X056560Y048893D03*
X056560Y047893D03*
X056560Y049893D03*
X056560Y050893D03*
X055560Y050893D03*
X055560Y049893D03*
X055560Y054893D03*
X055560Y055893D03*
X056560Y055893D03*
X056560Y054893D03*
X056560Y056893D03*
X056560Y057893D03*
X055560Y057893D03*
X055560Y056893D03*
X055560Y061893D03*
X055560Y062893D03*
X055560Y063893D03*
X056560Y063893D03*
X056560Y062893D03*
X056560Y061893D03*
X056560Y064893D03*
X055560Y064893D03*
X048060Y062393D03*
X048060Y061393D03*
X048060Y060393D03*
X048060Y059393D03*
X047060Y059393D03*
X047060Y060393D03*
X047060Y061393D03*
X047060Y062393D03*
X039060Y067893D03*
X039060Y068893D03*
X038060Y068893D03*
X038060Y067893D03*
X037060Y067893D03*
X037060Y068893D03*
X036060Y068893D03*
X036060Y067893D03*
X033560Y067893D03*
X033560Y068893D03*
X032560Y068893D03*
X032560Y067893D03*
X031560Y067893D03*
X031560Y068893D03*
X030560Y068893D03*
X030560Y067893D03*
X037060Y054319D03*
X037060Y053319D03*
X038060Y053319D03*
X038060Y054319D03*
X038060Y052319D03*
X037060Y052319D03*
X047060Y051893D03*
X048060Y051893D03*
X048060Y050893D03*
X048060Y049893D03*
X048060Y048893D03*
X048060Y047893D03*
X047060Y047893D03*
X047060Y048893D03*
X047060Y049893D03*
X047060Y050893D03*
D26*
X031060Y057842D03*
X031060Y058944D03*
D27*
X031060Y059613D02*
X031060Y060173D01*
X031060Y063613D02*
X031060Y064173D01*
D28*
X051560Y022893D03*
X052560Y022893D03*
X053560Y022893D03*
X053560Y018893D03*
X052560Y018893D03*
X051560Y018893D03*
D29*
X041934Y063381D03*
X041185Y063381D03*
X041185Y064405D03*
X041560Y064405D03*
X041934Y064405D03*
D30*
X038460Y026693D03*
X038460Y023093D03*
X038460Y021193D03*
X038460Y017593D03*
X032460Y017593D03*
X032460Y021193D03*
X032460Y023093D03*
X032460Y026693D03*
M02*
