G75*
%MOIN*%
%OFA0B0*%
%FSLAX24Y24*%
%IPPOS*%
%LPD*%
%AMOC8*
5,1,8,0,0,1.08239X$1,22.5*
%
%ADD10R,0.0630X0.0709*%
%ADD11R,0.0709X0.0630*%
%ADD12R,0.0710X0.0630*%
%ADD13R,0.0630X0.0710*%
%ADD14R,0.0709X0.0394*%
%ADD15R,0.0630X0.0787*%
%ADD16R,0.0217X0.0472*%
D10*
X037408Y028293D03*
X038511Y028293D03*
X049008Y032893D03*
X050111Y032893D03*
X055508Y039362D03*
X056611Y039362D03*
X056611Y046425D03*
X055508Y046425D03*
X055508Y052862D03*
X056611Y052862D03*
X056536Y059925D03*
X055434Y059925D03*
X048111Y064893D03*
X047008Y064893D03*
X040111Y065893D03*
X039008Y065893D03*
X042008Y045893D03*
X043111Y045893D03*
X047008Y045893D03*
X048111Y045893D03*
X048111Y042393D03*
X047008Y042393D03*
D11*
X038560Y025444D03*
X038560Y024342D03*
X038560Y019944D03*
X038560Y018842D03*
X034060Y019342D03*
X034060Y020444D03*
X032560Y024342D03*
X032560Y025444D03*
D12*
X052560Y028833D03*
X052560Y029953D03*
X051560Y052833D03*
X051560Y053953D03*
X052060Y064833D03*
X052060Y065953D03*
D13*
X025000Y024893D03*
X026119Y024893D03*
X026119Y026893D03*
X025000Y026893D03*
X025000Y031893D03*
X026119Y031893D03*
X026119Y033893D03*
X025000Y033893D03*
X025000Y038893D03*
X026119Y038893D03*
X026119Y040893D03*
X025000Y040893D03*
X039500Y058893D03*
X040619Y058893D03*
X040619Y060393D03*
X039500Y060393D03*
X049000Y043893D03*
X050119Y043893D03*
X041819Y031393D03*
X040700Y031393D03*
X044500Y019893D03*
X045619Y019893D03*
X045619Y018393D03*
X044500Y018393D03*
X048000Y018393D03*
X049119Y018393D03*
X049119Y019893D03*
X048000Y019893D03*
D14*
X031060Y057842D03*
X031060Y058944D03*
D15*
X051560Y022893D03*
X052560Y022893D03*
X053560Y022893D03*
X053560Y018893D03*
X052560Y018893D03*
X051560Y018893D03*
D16*
X041934Y063381D03*
X041185Y063381D03*
X041185Y064405D03*
X041560Y064405D03*
X041934Y064405D03*
M02*
